<svg id="visual" viewBox="0 0 900 50" width="900" height="50" xmlns="http://www.w3.org/2000/svg" xmlns:xlink="http://www.w3.org/1999/xlink" version="1.1"><path d="M0 26L29 24L58 23L87 25L116 22L145 22L174 22L203 22L232 24L261 23L290 23L319 24L348 23L377 22L406 22L435 23L465 23L494 23L523 26L552 24L581 25L610 23L639 24L668 22L697 25L726 22L755 26L784 22L813 24L842 24L871 24L900 22L900 51L871 51L842 51L813 51L784 51L755 51L726 51L697 51L668 51L639 51L610 51L581 51L552 51L523 51L494 51L465 51L435 51L406 51L377 51L348 51L319 51L290 51L261 51L232 51L203 51L174 51L145 51L116 51L87 51L58 51L29 51L0 51Z" fill="#FFFFFF" stroke-linecap="square" stroke-linejoin="bevel"></path></svg>